<svg id="Layer_1" data-name="Layer 1" xmlns="http://www.w3.org/2000/svg" viewBox="0 0 133 28.07">
  <title>Prosupport logo 133 px  BLUE</title>
  <g>
    <path d="M19.29,15V23.4H16V15H13.51v5.74H10.58v-7.3H24.69v7.3H21.76V15Zm7.12,3H25V13.42h1.41Zm-1.92-5.62a1.68,1.68,0,0,1-1.26.52A1.72,1.72,0,0,1,22,12.32,1.77,1.77,0,0,1,21.43,11,1.69,1.69,0,0,1,22,9.78a1.73,1.73,0,0,1,1.27-.53,1.69,1.69,0,0,1,1.26.53A1.66,1.66,0,0,1,25,11,1.73,1.73,0,0,1,24.49,12.32ZM19.22,12a2.19,2.19,0,0,1-1.58.65,2.24,2.24,0,0,1-2.24-2.24A2.25,2.25,0,0,1,17.64,8.2a2.24,2.24,0,0,1,2.23,2.23A2.18,2.18,0,0,1,19.22,12Zm-5.91.3a1.7,1.7,0,0,1-1.27.52,1.68,1.68,0,0,1-1.26-.52A1.77,1.77,0,0,1,10.25,11,1.81,1.81,0,0,1,12,9.25a1.71,1.71,0,0,1,1.27.53A1.69,1.69,0,0,1,13.84,11,1.77,1.77,0,0,1,13.31,12.32Zm-4.45,1.1h1.41v4.52H8.86Z" fill="#000f9f" fill-rule="evenodd"/>
    <path d="M22.79.72a10.49,10.49,0,0,1,3.26,1.8,8.86,8.86,0,0,1,2.8,4.21l.46,1.63a1.87,1.87,0,0,0,.63,1c.07.05.48.25,1.25.62a6.22,6.22,0,0,1,1.55,1q1.88,1.77,1.85,5.71a6.1,6.1,0,0,1-2.51,4.61,7.11,7.11,0,0,1-4.69,2q-2.73,0-3.6-1.17a1.3,1.3,0,0,1-.32-1.1,5.64,5.64,0,0,0,5-1.27,5.09,5.09,0,0,0,2.18-4.14A3.59,3.59,0,0,0,29,12.59a8.06,8.06,0,0,0-1.2-.63,4,4,0,0,1-.8-.42,2.6,2.6,0,0,1-.34-.93,12.84,12.84,0,0,0-.52-1.68,6.89,6.89,0,0,0-3.48-3.71,9.91,9.91,0,0,0-4.61-.93,9.17,9.17,0,0,0-4.86,1.24,6.06,6.06,0,0,0-2.34,2.8l-.49,1.19a1.41,1.41,0,0,1-.57.7,38.05,38.05,0,0,0-3.59,1.91A4.1,4.1,0,0,0,4.28,15a6.78,6.78,0,0,0,1.1,5,10.34,10.34,0,0,0,4.29,3,7.62,7.62,0,0,0,2.2.33l1.54,0c.12.91-.65,1.52-2.31,1.82a9.14,9.14,0,0,1-4.8-.42,9.31,9.31,0,0,1-4.41-3.33A9.13,9.13,0,0,1,0,16.34,6.89,6.89,0,0,1,3.43,9.85,26.58,26.58,0,0,1,6,8.49c.84-.4,1.31-.72,1.39-1Q9.88.35,18.25,0a12,12,0,0,1,4.54.71" fill="#000f9f" fill-rule="evenodd"/>
    <path d="M82.64,25.27l-20.82,1.5q-12.63,1-18.89,1.21a97.54,97.54,0,0,1-11.73-.14c-2.63-.3-3.69-.92-3.16-1.88l20.81-1.71,23.17-1q17.07-.45,25.76,0,9.41.46,21.7,1.62,11.76,1.09,9.3,1.1l-22.4-.5c-12.23-.29-20.15-.44-23.74-.18" fill="#000f9f" fill-rule="evenodd"/>
    <path d="M43.06,11.21a3.23,3.23,0,0,0-.34-1.55,2.4,2.4,0,0,0-.84-.93,2.33,2.33,0,0,0-1-.37,5,5,0,0,0-1-.1H38.06v6.06H39.8a4.4,4.4,0,0,0,1.47-.21,2.61,2.61,0,0,0,1-.66,2.57,2.57,0,0,0,.61-1,3.7,3.7,0,0,0,.21-1.26M45.12,11a5.15,5.15,0,0,1-.39,2,4.32,4.32,0,0,1-1,1.56,4.66,4.66,0,0,1-1.65,1,7,7,0,0,1-2.33.35H38.06v5.44a.22.22,0,0,1-.07.17.34.34,0,0,1-.16.11.76.76,0,0,1-.29.07l-.45,0-.48,0-.29-.07a.34.34,0,0,1-.16-.11.31.31,0,0,1,0-.17v-14a.76.76,0,0,1,.77-.87H40a8.76,8.76,0,0,1,.91.05,7,7,0,0,1,1,.19,3.54,3.54,0,0,1,1.2.49,3.9,3.9,0,0,1,1.06.91,3.78,3.78,0,0,1,.66,1.24A4.81,4.81,0,0,1,45.12,11m7.81-.23a2.75,2.75,0,0,0-.39-1.5,2.11,2.11,0,0,0-1.29-.88,2.15,2.15,0,0,0-.65-.12,7.39,7.39,0,0,0-.93-.05H48v5.1h1.9a3.9,3.9,0,0,0,1.31-.19,2.24,2.24,0,0,0,.93-.54,2,2,0,0,0,.56-.81A2.83,2.83,0,0,0,52.93,10.81Zm2.91,10.64a.29.29,0,0,1,0,.16.28.28,0,0,1-.14.09l-.31.07-.55,0-.47,0L54,21.7a.4.4,0,0,1-.18-.14l-.11-.23-1.33-3.55-.5-1.13a3.09,3.09,0,0,0-.61-.86,2.4,2.4,0,0,0-.82-.58A2.65,2.65,0,0,0,49.33,15H48v6.46a.21.21,0,0,1-.07.16.3.3,0,0,1-.16.12l-.29,0-.45,0-.48,0-.29-.07a.34.34,0,0,1-.16-.11.31.31,0,0,1,0-.17v-14a.76.76,0,0,1,.22-.63.75.75,0,0,1,.5-.19h3.1a7.57,7.57,0,0,1,.92.05l.66,0A5.43,5.43,0,0,1,53,7.19,3.42,3.42,0,0,1,54.08,8a3.3,3.3,0,0,1,.68,1.14A4.42,4.42,0,0,1,55,10.6a4.26,4.26,0,0,1-.2,1.38,3.39,3.39,0,0,1-.59,1,3.64,3.64,0,0,1-.88.82,6.46,6.46,0,0,1-1.15.56,3.08,3.08,0,0,1,1.19,1,5.1,5.1,0,0,1,.48.81c.15.3.3.64.45,1l1.31,3.32.21.61Zm10.85-7.28a11.38,11.38,0,0,0-.22-2.33A5.48,5.48,0,0,0,65.72,10a3.31,3.31,0,0,0-1.36-1.23,4.52,4.52,0,0,0-2.12-.45,4.33,4.33,0,0,0-2.13.48A4.07,4.07,0,0,0,58.71,10a5.23,5.23,0,0,0-.77,1.87,10.81,10.81,0,0,0-.22,2.23,12.62,12.62,0,0,0,.2,2.39,5.87,5.87,0,0,0,.72,1.9A3.57,3.57,0,0,0,60,19.66a4.87,4.87,0,0,0,2.15.43,4.38,4.38,0,0,0,2.15-.48,3.84,3.84,0,0,0,1.4-1.28,5.33,5.33,0,0,0,.77-1.89A11,11,0,0,0,66.69,14.17ZM68.75,14a11.08,11.08,0,0,1-.43,3.23,7,7,0,0,1-1.26,2.46A5.4,5.4,0,0,1,65,21.27a7.5,7.5,0,0,1-2.92.53,7.81,7.81,0,0,1-2.87-.48,5.11,5.11,0,0,1-2-1.44A6.34,6.34,0,0,1,56,17.54a12.75,12.75,0,0,1-.38-3.26,11.38,11.38,0,0,1,.4-3.14A6.82,6.82,0,0,1,57.33,8.7a5.55,5.55,0,0,1,2.08-1.55,8.14,8.14,0,0,1,5.75-.05,5.29,5.29,0,0,1,2,1.44,5.8,5.8,0,0,1,1.19,2.32A11,11,0,0,1,68.75,14" fill="#000f9f" fill-rule="evenodd"/>
    <path d="M76.86,18.17a3.72,3.72,0,0,1-.32,1.56,3.67,3.67,0,0,1-.89,1.14,4.1,4.1,0,0,1-1.33.7,5.75,5.75,0,0,1-1.64.23,7.13,7.13,0,0,1-2.08-.36,5.53,5.53,0,0,1-.71-.31,3.43,3.43,0,0,1-.38-.28,1,1,0,0,1-.17-.31,2.64,2.64,0,0,1,0-.47l0-.34.06-.21a.28.28,0,0,1,.1-.13.18.18,0,0,1,.13,0,.7.7,0,0,1,.36.17,6,6,0,0,0,1.54.72,4.71,4.71,0,0,0,1.25.15,3.3,3.3,0,0,0,1-.13,2.21,2.21,0,0,0,.76-.4,1.8,1.8,0,0,0,.49-.64,2.16,2.16,0,0,0,.17-.86,1.51,1.51,0,0,0-.25-.89,2.13,2.13,0,0,0-.62-.65,4.42,4.42,0,0,0-.89-.51l-1-.47c-.34-.17-.68-.35-1-.55a5.55,5.55,0,0,1-.89-.71,3.22,3.22,0,0,1-.62-.93,3.1,3.1,0,0,1-.23-1.29A3.47,3.47,0,0,1,69.87,11a2.72,2.72,0,0,1,.78-1,3.44,3.44,0,0,1,1.2-.63,4.69,4.69,0,0,1,1.48-.23,4.47,4.47,0,0,1,.82.08,5.78,5.78,0,0,1,.77.19,3.88,3.88,0,0,1,.67.27,1.33,1.33,0,0,1,.36.24l.13.14.06.15,0,.19,0,.28,0,.31-.06.22a.2.2,0,0,1-.08.14.16.16,0,0,1-.11,0,.76.76,0,0,1-.32-.13L75,11a4.14,4.14,0,0,0-.76-.31,3,3,0,0,0-1-.15,2.4,2.4,0,0,0-.89.15,1.93,1.93,0,0,0-.63.36,1.75,1.75,0,0,0-.38.55,2,2,0,0,0-.11.65,1.62,1.62,0,0,0,.23.89,2.38,2.38,0,0,0,.62.65,7.63,7.63,0,0,0,.9.53l1,.47c.35.17.7.35,1,.55A3.79,3.79,0,0,1,76,16a3,3,0,0,1,.89,2.18M86.78,17a5.68,5.68,0,0,1-.34,2,4.23,4.23,0,0,1-.93,1.5,4.12,4.12,0,0,1-1.48.94,6.17,6.17,0,0,1-2,.31,5.68,5.68,0,0,1-1.84-.29,4.2,4.2,0,0,1-1.44-.88,3.94,3.94,0,0,1-.91-1.44,5.82,5.82,0,0,1-.33-2V9.46a.28.28,0,0,1,0-.13.19.19,0,0,1,.13-.1l.25-.06a2.17,2.17,0,0,1,.4,0,2,2,0,0,1,.38,0l.25.06a.2.2,0,0,1,.13.08.18.18,0,0,1,.06.13v7.5a5.35,5.35,0,0,0,.19,1.52,3,3,0,0,0,.6,1.07,2.66,2.66,0,0,0,1,.64,3.86,3.86,0,0,0,2.51,0,2.42,2.42,0,0,0,.95-.64,3,3,0,0,0,.59-1A4.63,4.63,0,0,0,85.15,17V9.44a.28.28,0,0,1,0-.13.2.2,0,0,1,.14-.08l.24-.06a2.17,2.17,0,0,1,.4,0,2,2,0,0,1,.38,0l.25.06a.17.17,0,0,1,.13.1.18.18,0,0,1,.06.13Zm7-4.07a2.55,2.55,0,0,0-.29-1.28,2,2,0,0,0-.7-.78A2,2,0,0,0,92,10.6a4.24,4.24,0,0,0-.86-.08h-1.5v5h1.46a3.67,3.67,0,0,0,1.24-.17,2,2,0,0,0,.81-.55,2.25,2.25,0,0,0,.52-.82A3.21,3.21,0,0,0,93.82,13Zm1.73-.13a4.21,4.21,0,0,1-.33,1.69,3.67,3.67,0,0,1-.87,1.31,3.73,3.73,0,0,1-1.39.81A5.63,5.63,0,0,1,91,17H89.62v4.54a.21.21,0,0,1-.05.13.32.32,0,0,1-.14.1.82.82,0,0,1-.24.06l-.38,0-.4,0-.25-.06a.28.28,0,0,1-.13-.1.2.2,0,0,1,0-.13V9.86a.67.67,0,0,1,.19-.55.67.67,0,0,1,.46-.17h2.62q.39,0,.75,0a7.25,7.25,0,0,1,.88.16,2.9,2.9,0,0,1,1,.41,3.19,3.19,0,0,1,.9.76,3.28,3.28,0,0,1,.55,1,3.87,3.87,0,0,1,.21,1.31m6.65.13a2.55,2.55,0,0,0-.29-1.28,2,2,0,0,0-.7-.78,1.94,1.94,0,0,0-.86-.31,4.14,4.14,0,0,0-.85-.08H98v5h1.46a3.67,3.67,0,0,0,1.24-.17A2.34,2.34,0,0,0,102,14,3,3,0,0,0,102.2,13Zm1.72-.13a4.21,4.21,0,0,1-.32,1.69,3.67,3.67,0,0,1-.87,1.31,3.73,3.73,0,0,1-1.39.81,5.63,5.63,0,0,1-2,.3H98v4.54a.18.18,0,0,1-.06.13.28.28,0,0,1-.13.1.82.82,0,0,1-.25.06l-.38,0-.39,0-.25-.06a.24.24,0,0,1-.13-.1.2.2,0,0,1,0-.13V9.86A.63.63,0,0,1,97,9.14h2.62c.27,0,.52,0,.76,0a7.25,7.25,0,0,1,.88.16,3,3,0,0,1,1,.41,3.15,3.15,0,0,1,.89.76,3.09,3.09,0,0,1,.55,1,3.87,3.87,0,0,1,.21,1.31m9.78,2.6a9.12,9.12,0,0,0-.19-1.94,4.52,4.52,0,0,0-.62-1.56,2.81,2.81,0,0,0-1.14-1,3.85,3.85,0,0,0-1.79-.38,3.58,3.58,0,0,0-1.78.4A3.43,3.43,0,0,0,107,12a4.21,4.21,0,0,0-.64,1.56,8.63,8.63,0,0,0-.19,1.86,10.32,10.32,0,0,0,.17,2,4.86,4.86,0,0,0,.6,1.58,3.1,3.1,0,0,0,1.14,1,4.05,4.05,0,0,0,1.81.36,3.63,3.63,0,0,0,1.8-.4,3.18,3.18,0,0,0,1.18-1.06,4.4,4.4,0,0,0,.64-1.57A8.94,8.94,0,0,0,113.7,15.44Zm1.73-.12a9.39,9.39,0,0,1-.36,2.7A6,6,0,0,1,114,20.07a4.47,4.47,0,0,1-1.75,1.29,6.34,6.34,0,0,1-2.45.44,6.76,6.76,0,0,1-2.41-.4,4.34,4.34,0,0,1-1.67-1.2,5.41,5.41,0,0,1-1-1.95,10.58,10.58,0,0,1-.32-2.72,9.34,9.34,0,0,1,.34-2.62,5.85,5.85,0,0,1,1.06-2,4.62,4.62,0,0,1,1.75-1.29,6.29,6.29,0,0,1,2.47-.46,6.05,6.05,0,0,1,2.35.42,4.34,4.34,0,0,1,1.67,1.2,4.87,4.87,0,0,1,1,1.93,9.34,9.34,0,0,1,.34,2.64m6.64-2.68a2.34,2.34,0,0,0-.32-1.25,1.82,1.82,0,0,0-1.08-.74,2.34,2.34,0,0,0-.55-.09,5.39,5.39,0,0,0-.78,0H118v4.24h1.6a3.57,3.57,0,0,0,1.1-.15,1.89,1.89,0,0,0,.77-.45,1.69,1.69,0,0,0,.48-.68A2.32,2.32,0,0,0,122.07,12.64Zm2.45,8.86a.21.21,0,0,1,0,.14s0,.05-.11.08l-.27.06-.45,0-.4,0-.25-.06a.44.44,0,0,1-.15-.12l-.1-.19-1.12-3-.41-.94a2.56,2.56,0,0,0-.52-.72,2,2,0,0,0-.68-.49,2.51,2.51,0,0,0-1-.17H118V21.5a.18.18,0,0,1-.06.14.28.28,0,0,1-.13.1l-.25,0-.38,0-.39,0-.25-.06a.28.28,0,0,1-.13-.1.2.2,0,0,1,0-.13V9.82a.59.59,0,0,1,.61-.68h2.6c.31,0,.57,0,.77,0l.56,0a4.71,4.71,0,0,1,1.25.41,3,3,0,0,1,1.48,1.66,3.5,3.5,0,0,1,.19,1.19,3.75,3.75,0,0,1-.17,1.15,2.9,2.9,0,0,1-.5.87,2.85,2.85,0,0,1-.74.68,4.76,4.76,0,0,1-1,.47A2.44,2.44,0,0,1,122,16a2.38,2.38,0,0,1,.45.49,4.7,4.7,0,0,1,.4.68,9.09,9.09,0,0,1,.38.86l1.1,2.76.17.51ZM133,9.86l0,.33a.52.52,0,0,1-.07.21.4.4,0,0,1-.1.12.28.28,0,0,1-.13,0h-3.46V21.49a.2.2,0,0,1,0,.13.28.28,0,0,1-.13.1l-.26.06-.38,0-.4,0-.25-.06a.28.28,0,0,1-.13-.1.2.2,0,0,1,0-.13V10.56h-3.46l-.15,0a.27.27,0,0,1-.09-.12l-.06-.21,0-.33,0-.32.06-.23a.28.28,0,0,1,.09-.14l.15,0h8.55a.28.28,0,0,1,.13,0,.39.39,0,0,1,.1.14.57.57,0,0,1,.07.23Z" fill="#000f9f" fill-rule="evenodd"/>
  </g>
</svg>
